<svg width="159" height="37" viewBox="0 0 159 37" fill="none" xmlns="http://www.w3.org/2000/svg">
<path d="M17.3868 14.8853V12.7122H27.4421L27.0563 13.3551C27.0563 13.3037 27.0563 13.2523 27.0563 13.2008C27.0563 13.1408 27.0563 13.0894 27.0563 13.0465C27.0563 12.3522 26.9063 11.7135 26.6063 11.1306C26.3062 10.5391 25.8562 10.0677 25.2561 9.71619C24.6646 9.35616 23.9231 9.17614 23.0316 9.17614C22.1401 9.17614 21.3557 9.36901 20.6785 9.75477C20.0099 10.1319 19.487 10.672 19.1098 11.3749C18.7412 12.0693 18.5569 12.9051 18.5569 13.8823C18.5569 14.8767 18.7369 15.7339 19.0969 16.454C19.457 17.1655 19.9756 17.7142 20.6528 18.0999C21.33 18.4857 22.1401 18.6785 23.0831 18.6785C23.7431 18.6785 24.3132 18.6142 24.7932 18.4857C25.2819 18.3485 25.6805 18.1685 25.9891 17.9456C26.3062 17.7227 26.5463 17.4827 26.7091 17.2255C26.872 16.9598 26.9663 16.6983 26.992 16.4412H29.7695C29.718 16.9984 29.5337 17.5513 29.2165 18.0999C28.9079 18.64 28.4665 19.1329 27.8921 19.5786C27.3263 20.0158 26.632 20.3673 25.8091 20.633C24.9947 20.8902 24.056 21.0188 22.9931 21.0188C21.57 21.0188 20.3228 20.7187 19.2512 20.1187C18.1797 19.5186 17.3439 18.6871 16.7438 17.6241C16.1438 16.5526 15.8438 15.3268 15.8438 13.9466C15.8438 12.5408 16.1481 11.3064 16.7567 10.2434C17.3653 9.18042 18.2097 8.3532 19.2898 7.76171C20.3699 7.16165 21.6086 6.86162 23.0059 6.86162C24.4289 6.86162 25.659 7.16165 26.6963 7.76171C27.7421 8.36177 28.5479 9.189 29.1137 10.2434C29.6794 11.2978 29.9623 12.5108 29.9623 13.8823C29.9623 14.0452 29.958 14.2338 29.9495 14.4481C29.9409 14.6624 29.928 14.8081 29.9109 14.8853H17.3868Z" fill="white"/>
<path d="M37.2386 20.9673C36.7843 20.9673 36.3299 20.9202 35.8756 20.8259C35.4299 20.7316 35.0184 20.5602 34.6412 20.3116C34.2726 20.0544 33.9768 19.6901 33.754 19.2186C33.5311 18.7471 33.4196 18.1299 33.4196 17.367C33.4196 17.187 33.4196 16.9984 33.4196 16.8012C33.4196 16.604 33.4196 16.4026 33.4196 16.1969V9.39473H30.1407V7.08021H31.8638C32.2324 7.08021 32.5196 7.06735 32.7253 7.04163C32.9396 7.00734 33.0939 6.93448 33.1882 6.82304C33.2911 6.70303 33.3554 6.51444 33.3811 6.25727C33.4068 6.0001 33.4196 5.64863 33.4196 5.20287V2.56689H36.2099V7.08021H40.3889V9.39473H36.2099V15.4511C36.2099 15.6225 36.2099 15.794 36.2099 15.9654C36.2099 16.1368 36.2099 16.2954 36.2099 16.4412C36.2099 17.1269 36.2914 17.667 36.4542 18.0613C36.6257 18.4557 37.0114 18.6528 37.6115 18.6528C37.8687 18.6528 38.113 18.6314 38.3444 18.5885C38.5759 18.5457 38.7516 18.4985 38.8716 18.4471V20.723C38.7173 20.783 38.4987 20.8388 38.2159 20.8902C37.933 20.9416 37.6072 20.9673 37.2386 20.9673Z" fill="white"/>
<path d="M46.7579 20.9673C46.3036 20.9673 45.8492 20.9202 45.3949 20.8259C44.9491 20.7316 44.5377 20.5602 44.1605 20.3116C43.7919 20.0544 43.4961 19.6901 43.2732 19.2186C43.0504 18.7471 42.9389 18.1299 42.9389 17.367C42.9389 17.187 42.9389 16.9984 42.9389 16.8012C42.9389 16.604 42.9389 16.4026 42.9389 16.1969V9.39473H39.66V7.08021H41.3831C41.7517 7.08021 42.0388 7.06735 42.2446 7.04163C42.4589 7.00734 42.6132 6.93448 42.7075 6.82304C42.8103 6.70303 42.8746 6.51444 42.9003 6.25727C42.9261 6.0001 42.9389 5.64863 42.9389 5.20287V2.56689H45.7292V7.08021H49.9082V9.39473H45.7292V15.4511C45.7292 15.6225 45.7292 15.794 45.7292 15.9654C45.7292 16.1368 45.7292 16.2954 45.7292 16.4412C45.7292 17.1269 45.8107 17.667 45.9735 18.0613C46.145 18.4557 46.5307 18.6528 47.1308 18.6528C47.388 18.6528 47.6323 18.6314 47.8637 18.5885C48.0952 18.5457 48.2709 18.4985 48.3909 18.4471V20.723C48.2366 20.783 48.018 20.8388 47.7351 20.8902C47.4522 20.9416 47.1265 20.9673 46.7579 20.9673Z" fill="white"/>
<path d="M52.1327 14.8853V12.7122H62.188L61.8023 13.3551C61.8023 13.3037 61.8023 13.2523 61.8023 13.2008C61.8023 13.1408 61.8023 13.0894 61.8023 13.0465C61.8023 12.3522 61.6523 11.7135 61.3522 11.1306C61.0522 10.5391 60.6022 10.0677 60.0021 9.71619C59.4106 9.35616 58.6691 9.17614 57.7776 9.17614C56.8861 9.17614 56.1017 9.36901 55.4245 9.75477C54.7559 10.1319 54.2329 10.672 53.8558 11.3749C53.4871 12.0693 53.3028 12.9051 53.3028 13.8823C53.3028 14.8767 53.4829 15.7339 53.8429 16.454C54.2029 17.1655 54.7216 17.7142 55.3988 18.0999C56.076 18.4857 56.8861 18.6785 57.829 18.6785C58.4891 18.6785 59.0591 18.6142 59.5392 18.4857C60.0278 18.3485 60.4264 18.1685 60.735 17.9456C61.0522 17.7227 61.2922 17.4827 61.4551 17.2255C61.618 16.9598 61.7123 16.6983 61.738 16.4412H64.5154C64.464 16.9984 64.2797 17.5513 63.9625 18.0999C63.6539 18.64 63.2124 19.1329 62.6381 19.5786C62.0723 20.0158 61.378 20.3673 60.555 20.633C59.7406 20.8902 58.802 21.0188 57.739 21.0188C56.316 21.0188 55.0687 20.7187 53.9972 20.1187C52.9257 19.5186 52.0899 18.6871 51.4898 17.6241C50.8897 16.5526 50.5897 15.3268 50.5897 13.9466C50.5897 12.5408 50.894 11.3064 51.5027 10.2434C52.1113 9.18042 52.9557 8.3532 54.0358 7.76171C55.1159 7.16165 56.3546 6.86162 57.7519 6.86162C59.1749 6.86162 60.405 7.16165 61.4422 7.76171C62.4881 8.36177 63.2939 9.189 63.8596 10.2434C64.4254 11.2978 64.7083 12.5108 64.7083 13.8823C64.7083 14.0452 64.704 14.2338 64.6954 14.4481C64.6869 14.6624 64.674 14.8081 64.6569 14.8853H52.1327Z" fill="white"/>
<path d="M66.7898 20.7359V7.08021H69.58V11.4392L68.8343 11.1049C68.8943 10.5477 69.0357 10.0162 69.2586 9.51046C69.4815 9.00469 69.7772 8.55465 70.1458 8.16032C70.523 7.75742 70.9859 7.44025 71.5345 7.20879C72.0832 6.97734 72.7175 6.86162 73.4376 6.86162C73.9862 6.86162 74.4277 6.90448 74.762 6.9902C75.1049 7.07592 75.3149 7.1445 75.3921 7.19593L74.8006 9.81906C74.7148 9.75905 74.5391 9.6819 74.2734 9.58761C74.0162 9.49331 73.6562 9.44616 73.1933 9.44616C72.4903 9.44616 71.9074 9.57046 71.4445 9.81906C70.9816 10.0677 70.613 10.3977 70.3387 10.8092C70.0644 11.2206 69.8672 11.6707 69.7472 12.1593C69.6358 12.6393 69.58 13.1237 69.58 13.6123V20.7359H66.7898Z" fill="white"/>
<path d="M127.328 14.8853V12.7122H137.383L136.997 13.3551C136.997 13.3037 136.997 13.2523 136.997 13.2008C136.997 13.1408 136.997 13.0894 136.997 13.0465C136.997 12.3522 136.847 11.7135 136.547 11.1306C136.247 10.5391 135.797 10.0677 135.197 9.71619C134.605 9.35616 133.864 9.17614 132.972 9.17614C132.081 9.17614 131.297 9.36901 130.619 9.75477C129.951 10.1319 129.428 10.672 129.051 11.3749C128.682 12.0693 128.498 12.9051 128.498 13.8823C128.498 14.8767 128.678 15.7339 129.038 16.454C129.398 17.1655 129.916 17.7142 130.594 18.0999C131.271 18.4857 132.081 18.6785 133.024 18.6785C133.684 18.6785 134.254 18.6142 134.734 18.4857C135.223 18.3485 135.621 18.1685 135.93 17.9456C136.247 17.7227 136.487 17.4827 136.65 17.2255C136.813 16.9598 136.907 16.6983 136.933 16.4412H139.71C139.659 16.9984 139.475 17.5513 139.157 18.0999C138.849 18.64 138.407 19.1329 137.833 19.5786C137.267 20.0158 136.573 20.3673 135.75 20.633C134.935 20.8902 133.997 21.0188 132.934 21.0188C131.511 21.0188 130.264 20.7187 129.192 20.1187C128.121 19.5186 127.285 18.6871 126.685 17.6241C126.085 16.5526 125.785 15.3268 125.785 13.9466C125.785 12.5408 126.089 11.3064 126.697 10.2434C127.306 9.18042 128.15 8.3532 129.231 7.76171C130.311 7.16165 131.549 6.86162 132.947 6.86162C134.37 6.86162 135.6 7.16165 136.637 7.76171C137.683 8.36177 138.489 9.189 139.054 10.2434C139.62 11.2978 139.903 12.5108 139.903 13.8823C139.903 14.0452 139.899 14.2338 139.89 14.4481C139.882 14.6624 139.869 14.8081 139.852 14.8853H127.328Z" fill="white"/>
<path d="M144.929 0.638123V20.7359H142.177V0.638123H144.929Z" fill="white"/>
<path d="M153.011 21.0059C152.197 21.0059 151.43 20.9159 150.709 20.7359C149.989 20.5559 149.355 20.2944 148.806 19.9515C148.266 19.6001 147.842 19.1672 147.533 18.6528C147.233 18.1385 147.083 17.5427 147.083 16.8655C147.083 16.8055 147.083 16.7455 147.083 16.6855C147.083 16.6169 147.083 16.5612 147.083 16.5183H149.861C149.861 16.5612 149.861 16.5998 149.861 16.634C149.861 16.6683 149.861 16.7155 149.861 16.7755C149.861 17.4013 150.148 17.877 150.722 18.2028C151.305 18.5199 152.094 18.6785 153.088 18.6785C153.671 18.6785 154.203 18.6185 154.683 18.4985C155.171 18.3785 155.557 18.1942 155.84 17.9456C156.131 17.697 156.277 17.3798 156.277 16.9941C156.277 16.3683 155.969 15.9225 155.351 15.6568C154.743 15.3911 153.817 15.1553 152.574 14.9496C151.897 14.8296 151.241 14.6753 150.607 14.4867C149.981 14.2981 149.415 14.0495 148.909 13.7409C148.412 13.4237 148.013 13.0337 147.713 12.5708C147.422 12.0993 147.276 11.5335 147.276 10.8735C147.276 10.0162 147.533 9.28758 148.048 8.68752C148.562 8.08745 149.256 7.63312 150.131 7.32452C151.005 7.01592 151.97 6.86162 153.024 6.86162C154.044 6.86162 154.987 7.02878 155.853 7.36309C156.727 7.68884 157.43 8.1646 157.962 8.79038C158.493 9.40759 158.759 10.1662 158.759 11.0663C158.759 11.1006 158.759 11.1392 158.759 11.1821C158.759 11.2249 158.759 11.2635 158.759 11.2978H155.994C155.994 11.2635 155.994 11.2335 155.994 11.2078C155.994 11.1821 155.994 11.1521 155.994 11.1178C155.994 10.672 155.853 10.3077 155.57 10.0248C155.287 9.74191 154.918 9.53189 154.464 9.39473C154.018 9.249 153.543 9.17614 153.037 9.17614C152.574 9.17614 152.107 9.22757 151.635 9.33044C151.172 9.42473 150.787 9.59189 150.478 9.83192C150.169 10.0634 150.015 10.3805 150.015 10.7834C150.015 11.1949 150.165 11.5249 150.465 11.7735C150.765 12.0136 151.19 12.215 151.738 12.3779C152.287 12.5322 152.925 12.6736 153.654 12.8022C154.323 12.9222 154.974 13.0765 155.609 13.2651C156.243 13.4451 156.813 13.6852 157.319 13.9852C157.833 14.2852 158.24 14.671 158.54 15.1425C158.849 15.6139 159.003 16.1926 159.003 16.8784C159.003 17.5899 158.84 18.2028 158.515 18.7171C158.189 19.2314 157.743 19.6601 157.177 20.003C156.62 20.3373 155.981 20.5859 155.261 20.7487C154.55 20.9202 153.8 21.0059 153.011 21.0059Z" fill="white"/>
<path d="M106.588 20.7359V14.4353C106.588 14.0667 106.588 13.7538 106.588 13.4966C106.588 13.2395 106.588 12.9994 106.588 12.7766C106.588 12.1079 106.485 11.5207 106.28 11.0149C106.074 10.5006 105.735 10.102 105.264 9.81911C104.792 9.52765 104.162 9.38192 103.374 9.38192C102.679 9.38192 102.049 9.55337 101.483 9.89626C100.926 10.2392 100.48 10.7063 100.146 11.2978C99.8203 11.8807 99.6575 12.5451 99.6575 13.2909L98.4616 12.6994C98.4616 11.5936 98.7231 10.6035 99.246 9.7291C99.7689 8.84615 100.468 8.14751 101.342 7.63317C102.225 7.11883 103.189 6.86166 104.235 6.86166C105.315 6.86166 106.237 7.07168 107 7.49173C107.771 7.9032 108.358 8.49469 108.761 9.2662C109.173 10.0291 109.378 10.9421 109.378 12.005C109.378 12.3994 109.378 12.8366 109.378 13.3166C109.378 13.7967 109.378 14.2596 109.378 14.7053V20.7359H106.588ZM96.8672 20.7359V7.08026H99.6575V20.7359H96.8672Z" fill="white"/>
<path d="M13.4522 14.1863C13.4522 17.6596 10.6936 20.4368 7.33759 20.4368C3.98161 20.4368 1.22293 17.6596 1.22293 14.1863C1.22293 10.7129 3.98161 7.93572 7.33759 7.93572C10.6936 7.93572 13.4522 10.7129 13.4522 14.1863Z" stroke="white" stroke-width="2.44586"/>
<circle cx="117.622" cy="14.0505" r="5.47655" stroke="white" stroke-width="2.41606"/>
<path d="M86.4611 21.0616C85.4043 21.0616 84.4752 20.8943 83.6739 20.5597C82.8813 20.225 82.2649 19.7451 81.8245 19.1198C81.3842 18.4946 81.1641 17.7416 81.1641 16.861C81.1641 15.9187 81.4106 15.1394 81.9038 14.5229C82.4058 13.9065 83.0927 13.4309 83.9645 13.0963C84.8451 12.7528 85.8446 12.5283 86.963 12.4226C88.6274 12.2553 89.7987 12.0924 90.4768 11.9338C91.1637 11.7753 91.5071 11.5155 91.5071 11.1545C91.5071 11.1457 91.5071 11.1369 91.5071 11.1281C91.5071 10.4148 91.2033 9.87316 90.5956 9.5033C89.988 9.13343 89.1206 8.9485 87.9934 8.9485C86.8045 8.9485 85.8843 9.15985 85.2326 9.58255C84.5897 9.99645 84.2683 10.6569 84.2683 11.564H81.4547C81.4547 10.4896 81.7321 9.57815 82.2869 8.82961C82.8505 8.08107 83.6254 7.51306 84.6117 7.12559C85.5981 6.7293 86.7297 6.53116 88.0066 6.53116C89.1778 6.53116 90.2434 6.71169 91.2033 7.07275C92.172 7.425 92.9425 7.95338 93.515 8.65789C94.0874 9.3624 94.3736 10.2386 94.3736 11.2866C94.3736 11.4715 94.3736 11.6564 94.3736 11.8414C94.3736 12.0175 94.3736 12.198 94.3736 12.383V17.9838C94.3736 18.3096 94.3868 18.6267 94.4132 18.9349C94.4396 19.2343 94.4881 19.5029 94.5585 19.7407C94.6378 20.0137 94.7302 20.2382 94.8359 20.4143C94.9504 20.5905 95.0428 20.7138 95.1133 20.7842H92.26C92.2072 20.7314 92.128 20.6213 92.0223 20.454C91.9254 20.2779 91.8373 20.0753 91.7581 19.8463C91.6788 19.6262 91.6172 19.3752 91.5732 19.0934C91.5379 18.8028 91.5203 18.4902 91.5203 18.1555L92.0487 18.5254C91.7845 19.0362 91.3838 19.4809 90.8466 19.8595C90.3182 20.2382 89.6798 20.5332 88.9313 20.7446C88.1915 20.9559 87.3681 21.0616 86.4611 21.0616ZM87.0555 18.6839C87.8745 18.6839 88.6186 18.5562 89.2879 18.3008C89.966 18.0366 90.5076 17.6404 90.9127 17.112C91.3178 16.5748 91.5203 15.9011 91.5203 15.0909V12.766L92.194 13.6511C91.6304 13.8712 90.9391 14.0518 90.1201 14.1927C89.3099 14.3248 88.4733 14.4348 87.6103 14.5229C86.4214 14.6286 85.5276 14.8355 84.9288 15.1438C84.3299 15.4432 84.0305 15.9451 84.0305 16.6496C84.0305 17.3277 84.2771 17.8385 84.7703 18.1819C85.2722 18.5166 86.034 18.6839 87.0555 18.6839Z" fill="white"/>
<path d="M0 0.638115V14.7698H2.44586V0.638115H0Z" fill="white"/>
<mask id="mask0_98_308" style="mask-type:alpha" maskUnits="userSpaceOnUse" x="110" y="22" width="15" height="15">
<circle cx="117.622" cy="29.6072" r="5.47655" stroke="white" stroke-width="2.41606"/>
</mask>
<g mask="url(#mask0_98_308)">
<rect x="106.797" y="19.9333" width="23.0998" height="8.96816" fill="white"/>
</g>
</svg>
