<svg width="30" height="20" viewBox="0 0 30 20" fill="none" xmlns="http://www.w3.org/2000/svg">
<path fill-rule="evenodd" clip-rule="evenodd" d="M29.5834 1.66666C29.5834 1.99818 29.4517 2.31612 29.2173 2.55054C28.9829 2.78496 28.6649 2.91666 28.3334 2.91666H1.66675C1.33523 2.91666 1.01728 2.78496 0.782864 2.55054C0.548444 2.31612 0.416748 1.99818 0.416748 1.66666C0.416748 1.33514 0.548444 1.01719 0.782864 0.782773C1.01728 0.548352 1.33523 0.416656 1.66675 0.416656H28.3334C28.6649 0.416656 28.9829 0.548352 29.2173 0.782773C29.4517 1.01719 29.5834 1.33514 29.5834 1.66666ZM29.5834 9.99999C29.5834 10.3315 29.4517 10.6495 29.2173 10.8839C28.9829 11.1183 28.6649 11.25 28.3334 11.25H1.66675C1.33523 11.25 1.01728 11.1183 0.782864 10.8839C0.548444 10.6495 0.416748 10.3315 0.416748 9.99999C0.416748 9.66847 0.548444 9.35053 0.782864 9.11611C1.01728 8.88169 1.33523 8.74999 1.66675 8.74999H28.3334C28.6649 8.74999 28.9829 8.88169 29.2173 9.11611C29.4517 9.35053 29.5834 9.66847 29.5834 9.99999ZM29.5834 18.3333C29.5834 18.6648 29.4517 18.9828 29.2173 19.2172C28.9829 19.4516 28.6649 19.5833 28.3334 19.5833H1.66675C1.33523 19.5833 1.01728 19.4516 0.782864 19.2172C0.548444 18.9828 0.416748 18.6648 0.416748 18.3333C0.416748 18.0018 0.548444 17.6839 0.782864 17.4494C1.01728 17.215 1.33523 17.0833 1.66675 17.0833H28.3334C28.6649 17.0833 28.9829 17.215 29.2173 17.4494C29.4517 17.6839 29.5834 18.0018 29.5834 18.3333Z" fill="black"/>
</svg>
